<svg width="280" height="33" viewBox="0 0 280 33" fill="none" xmlns="http://www.w3.org/2000/svg">
<path fill-rule="evenodd" clip-rule="evenodd" d="M170.447 0.62775C170.204 0.825248 168.166 0.947953 165.917 0.900534C162.497 0.828183 161.749 0.947464 161.335 1.6304C160.877 2.38764 160.857 2.38617 161.067 1.60596C161.268 0.864846 161.022 0.778807 158.984 0.872667C157.714 0.931819 156.674 1.11416 156.674 1.27842C156.673 1.44317 156.221 1.46614 155.669 1.32975C154.943 1.15083 154.744 1.24762 154.95 1.67831C155.155 2.10459 155.006 2.08993 154.426 1.62698C153.742 1.07946 153.561 1.09265 153.255 1.71302C153.015 2.20041 152.891 2.24147 152.888 1.83523C152.88 1.0819 147.742 0.967996 147.385 1.71302C147.256 1.98189 147.331 2.20187 147.552 2.20187C147.773 2.20187 147.954 2.42186 147.954 2.69073C147.954 3.60099 147.126 3.18644 146.92 2.17352C146.734 1.25349 146.503 1.18847 144.207 1.41188C142.827 1.54631 141.491 1.66902 141.236 1.68466C140.957 1.70177 140.873 2.05082 141.023 2.56852C141.241 3.31745 141.192 3.34043 140.632 2.75331C140.28 2.38422 139.992 2.24587 139.992 2.4463C139.992 2.64674 139.779 2.61056 139.519 2.36662C138.802 1.69591 135.176 1.96282 134.446 2.7406C133.951 3.26759 133.767 3.2847 133.645 2.81686C133.544 2.43115 133.256 2.35342 132.854 2.60323C132.506 2.81979 131.485 2.95227 130.586 2.89752C129.354 2.82224 128.771 3.04711 128.221 3.80826C127.819 4.36458 127.374 4.67061 127.233 4.48827C127.092 4.30641 127.186 4.15731 127.441 4.15731C127.697 4.15731 127.801 3.93732 127.672 3.66845C127.543 3.39958 126.692 3.17959 125.78 3.17959C124.363 3.17959 124.099 3.33896 123.959 4.27952L123.794 5.37946L123.743 4.27952C123.687 3.09942 123.102 2.78508 122.832 3.79066C122.578 4.74101 123.34 6.52632 124.024 6.5796C126.395 6.76488 128.624 6.71551 129.757 6.45201C130.486 6.28287 132.064 6.09954 133.263 6.04479C135.295 5.9524 135.618 5.71286 135.483 4.40174C135.455 4.13287 135.667 4.2981 135.953 4.76838C136.613 5.85072 137.644 5.86147 138.557 4.79576C139.083 4.18224 139.213 4.15047 139.057 4.67354C138.894 5.22302 139.263 5.40194 140.722 5.48114C142.385 5.57109 142.617 5.46012 142.763 4.50342L142.929 3.42402L143.204 4.4912C143.462 5.48847 143.668 5.54518 146.38 5.36039C147.975 5.25186 150.347 5.1272 151.65 5.08321C152.953 5.03921 154.019 4.80505 154.019 4.56306C154.019 4.32108 154.374 4.36801 154.809 4.66817C155.426 5.09347 155.737 5.05143 156.231 4.47507C156.688 3.94123 157.049 3.87133 157.535 4.22233C158.431 4.86958 162.645 5.23671 162.907 4.69065C163.021 4.4516 163.715 4.434 164.462 4.65155C165.204 4.86713 166.698 4.8994 167.782 4.72292C168.865 4.54595 170.831 4.51271 172.152 4.64812C173.471 4.78354 174.613 4.81385 174.69 4.71558C174.766 4.61684 178.079 4.53911 182.052 4.54204C188.51 4.54693 189.276 4.46236 189.281 3.74129C189.286 3.08622 189.35 3.06276 189.622 3.61614C189.818 4.01554 190.286 4.18615 190.753 4.02874C191.191 3.8811 191.55 3.94172 191.55 4.16415C191.55 4.38658 192.744 4.53129 194.203 4.48533C195.672 4.43889 196.86 4.18322 196.863 3.91288C196.867 3.64401 197.002 3.69289 197.163 4.02092C197.375 4.45014 198.679 4.57382 201.801 4.4604C204.191 4.37387 206.316 4.24384 206.525 4.17197C206.733 4.10011 206.989 4.09474 207.093 4.16024C207.842 4.62808 212.271 4.79723 215.339 4.47507C216.433 4.36019 217.329 4.40663 217.329 4.57822C217.329 4.75029 217.713 4.93655 218.182 4.99277C221.318 5.36772 222.888 5.36186 223.3 4.97321C223.603 4.68723 223.774 4.7239 223.774 5.07538C223.774 5.84925 226.247 5.76028 226.757 4.96784C226.989 4.60706 227.091 4.19837 226.983 4.05954C226.876 3.92119 227.048 3.52961 227.366 3.18937C227.84 2.68193 227.944 2.70296 227.944 3.30425C227.944 3.70756 227.69 4.30934 227.379 4.64177C226.438 5.64931 227.047 5.99297 229.836 6.02719C231.3 6.04479 232.669 6.19536 232.877 6.36157C233.086 6.52779 233.361 6.31318 233.488 5.88494C233.697 5.18342 233.766 5.18831 234.19 5.9348C234.627 6.70622 234.691 6.69888 235.121 5.82725C235.5 5.05974 235.546 5.04508 235.377 5.7461C235.245 6.29313 235.371 6.6016 235.727 6.6016C236.033 6.6016 236.289 6.21687 236.296 5.7461C236.307 4.99375 236.364 4.98006 236.77 5.63171C237.089 6.14403 237.817 6.343 239.127 6.27553C240.17 6.22225 241.843 6.42855 242.845 6.73408C244.272 7.16917 244.837 7.15401 245.444 6.66515C245.871 6.32148 246.107 6.277 245.968 6.56543C245.826 6.86216 246.015 7.10659 246.402 7.1281C246.78 7.14864 247.429 7.26938 247.846 7.39697C248.519 7.60181 251.828 7.66927 252.514 7.49181C252.657 7.45466 253.076 7.59399 253.444 7.80126C253.812 8.00854 254.452 8.06427 254.866 7.92445C255.279 7.78513 255.618 7.84135 255.618 8.04911C255.618 8.25737 256.343 8.43042 257.229 8.43384C258.768 8.4402 260.335 8.69636 263.841 9.5152C264.838 9.74838 265.579 9.69363 265.831 9.36854C266.114 9.00337 266.233 9.0239 266.233 9.43698C266.233 10.2133 267.254 10.1932 267.498 9.41254C267.651 8.92368 267.695 8.92368 267.719 9.41254C267.762 10.2793 269.266 10.1752 269.266 9.30548C269.266 8.88213 269.489 8.69831 269.81 8.85719C270.11 9.00532 270.269 9.41645 270.164 9.76989C270.033 10.2089 270.284 10.3903 270.952 10.3404C271.778 10.2793 271.84 10.1815 271.346 9.71465C270.818 9.21699 270.82 9.13193 271.359 8.86502C271.706 8.69343 271.861 8.77262 271.727 9.05127C271.6 9.31721 271.676 9.53475 271.897 9.53475C272.118 9.53475 272.298 9.86473 272.298 10.268C272.298 11.0502 272.75 11.2345 273.21 10.641C273.678 10.0368 274.736 10.226 275.224 11.0013C275.635 11.653 275.688 11.653 275.704 11.0013C275.715 10.5384 275.824 10.4607 276 10.7906C276.302 11.3567 279.511 13.1078 279.73 12.8257C279.803 12.7309 279.581 12.134 279.236 11.499C278.648 10.4162 278.594 10.402 278.357 11.2707C278.124 12.1281 278.033 12.0964 277.137 10.8503C276.544 10.0236 275.715 9.4624 274.993 9.3969C274.346 9.33823 273.816 9.14367 273.816 8.96426C273.813 7.88388 266.905 5.88493 265.797 6.64413C265.363 6.94136 265.105 6.85092 264.956 6.34837C264.821 5.89422 264.232 5.62388 263.379 5.62388C262.391 5.62388 262.096 5.79156 262.303 6.23496C262.48 6.61578 262.335 6.58156 261.916 6.14354C261.547 5.75686 260.782 5.4127 260.215 5.37848C259.649 5.34426 258.973 5.14774 258.715 4.94193C258.456 4.73563 256.929 4.48338 255.32 4.38121C253.712 4.27855 252.396 4.16611 252.396 4.13042C252.396 3.73885 249.29 3.9383 249.084 4.34308C248.888 4.72976 248.804 4.71119 248.8 4.27952C248.797 3.94368 248.613 3.66845 248.393 3.66845C248.172 3.66845 248.108 3.91141 248.25 4.20815C248.392 4.50489 248.103 4.4208 247.609 4.02189C246.545 3.16346 241.97 2.47759 241.97 3.17666C241.97 3.45189 241.566 3.40984 240.995 3.07449C240.206 2.61105 239.956 2.63598 239.68 3.20746C239.397 3.79458 239.207 3.8068 238.549 3.28079C237.763 2.65211 235.879 2.29671 231.545 1.95989C230.294 1.86261 229.271 1.75213 229.271 1.71497C229.271 1.67733 228.56 1.60644 227.691 1.55756C226.45 1.48765 226.198 1.60204 226.513 2.0909C226.817 2.56314 226.764 2.63891 226.291 2.40524C225.949 2.23561 225.669 1.88949 225.669 1.63578C225.669 1.38157 224.774 1.19971 223.679 1.23149C221.983 1.28086 214.883 0.945997 211.067 0.63655C210.437 0.585708 209.618 0.694723 209.246 0.878534C208.84 1.07946 208.663 1.0203 208.802 0.729921C209.128 0.0494297 208.475 0.12667 207.927 0.833071C207.574 1.28918 207.371 1.28918 207.017 0.833071C206.455 0.108094 204.819 0.0572513 204.819 0.764141C204.819 1.04866 204.616 1.12052 204.368 0.92302C203.838 0.500158 194.177 0.281639 194.372 0.69668C194.445 0.852626 194.053 1.40455 193.501 1.92371L192.498 2.86819L193.22 1.8015C193.941 0.737254 193.94 0.7353 192.841 0.689836C192.235 0.664415 191.1 0.587663 190.318 0.518734C189.481 0.445406 188.894 0.61504 188.891 0.931332C188.887 1.23491 188.745 1.18554 188.565 0.817427C188.25 0.177022 186.381 0.265018 185.508 0.961153C185.287 1.13763 185.105 1.1039 185.105 0.886355C185.105 0.274304 178.14 0.549534 177.98 1.16843C177.888 1.5253 177.497 1.46761 176.783 0.991951C176.201 0.603308 175.625 0.412653 175.505 0.56811C175.234 0.917644 172.443 0.892222 171.546 0.532422C171.185 0.387231 170.69 0.430251 170.447 0.62775ZM138.286 3.17959C138.415 3.44846 138.35 3.66845 138.142 3.66845C137.933 3.66845 137.657 3.44846 137.528 3.17959C137.399 2.91072 137.465 2.69073 137.673 2.69073C137.882 2.69073 138.158 2.91072 138.286 3.17959ZM117.113 3.9163C116.568 4.28099 116.037 4.40223 115.933 4.18517C115.675 3.64792 113.797 3.67627 112.982 4.23015C112.539 4.53031 112.318 4.50049 112.318 4.14166C112.318 3.84493 112.019 3.72076 111.655 3.86497C111.29 4.00918 110.37 4.17735 109.61 4.23846C108.687 4.31326 108.289 4.55231 108.411 4.95953C108.523 5.33888 108.293 5.54029 107.802 5.49238C107.367 5.45034 107.011 5.16925 107.011 4.86811C107.011 4.1754 105.623 4.28441 105.051 5.0221C104.77 5.38434 104.393 5.42101 103.967 5.1272C103.563 4.84856 102.028 4.87251 99.9492 5.18978C98.0992 5.47185 95.4766 5.75343 94.1213 5.81503C92.766 5.87662 91.3069 6.17385 90.8785 6.47499C90.4501 6.77563 89.8788 6.84603 89.6085 6.63044C89.3378 6.41486 88.4943 6.41144 87.7335 6.62213C86.9722 6.83283 85.0452 7.10757 83.4508 7.23223C81.8563 7.35738 80.352 7.61891 80.1075 7.81348C79.8633 8.00805 78.6089 8.25834 77.3199 8.36882C73.7856 8.67241 72.1339 8.91928 70.0545 9.45409C69.0154 9.7215 68.0346 9.83589 67.8747 9.70879C67.7151 9.5812 67.5843 9.6863 67.5843 9.94246C67.5843 10.1986 67.3197 10.5389 66.9959 10.6992C66.6722 10.8591 66.4947 10.8082 66.6013 10.5863C66.8215 10.1263 64.7789 10.2387 63.5351 10.7545C62.9661 10.9906 62.7822 11.3494 62.9452 11.9052C63.1515 12.6072 63.0938 12.5994 62.5047 11.8461C61.9747 11.169 61.4417 11.0395 60.0618 11.2536C59.0905 11.4041 57.7769 11.5884 57.142 11.6628C56.507 11.7371 55.8246 11.9218 55.6256 12.0739C55.4265 12.2259 54.7942 12.2816 54.221 12.1981C53.6478 12.1145 53.1785 12.2479 53.1785 12.4953C53.1785 12.7426 52.8797 12.9128 52.515 12.8737C51.0828 12.7187 50.4804 12.9577 50.7647 13.5678C50.9581 13.9829 50.844 13.9638 50.408 13.5082C50.0099 13.0917 49.7666 13.0394 49.7666 13.3703C49.7666 13.6637 49.5281 13.7859 49.2362 13.6412C48.9447 13.497 48.5917 13.6177 48.4518 13.9091C48.3119 14.2009 48.0591 14.3285 47.8893 14.1936C47.4093 13.8108 41.3983 14.8951 40.512 15.5242C40.0768 15.8332 39.3072 16.1202 38.8018 16.1612C38.2965 16.2028 37.5713 16.7332 37.1907 17.3399C36.5572 18.3484 36.3096 18.2892 36.4704 17.1683C36.5557 16.5709 32.9519 17.1419 32.7946 17.7505C32.7249 18.0204 32.1801 18.1416 31.5834 18.0204C30.299 17.7593 29.7853 18.541 30.4946 19.6766C30.9583 20.4187 30.9222 20.4177 30.0742 19.6649C29.1299 18.8265 26.9921 18.8876 25.3146 19.8008C24.8976 20.0276 24.0802 20.3473 23.4983 20.5106C22.9164 20.6734 22.5354 21.0053 22.6514 21.2478C22.7678 21.4903 22.6791 21.8349 22.4547 22.0138C22.1916 22.2236 22.2848 22.5633 22.717 22.971C23.4858 23.6955 24.4916 23.3978 24.1022 22.5604C23.9593 22.2524 24.1299 22.3018 24.4817 22.6694C25.0276 23.2404 25.2623 23.2194 26.0815 22.5271C26.61 22.0808 27.1961 21.8383 27.3841 21.9884C27.5725 22.1385 27.8379 22.0285 27.974 21.7445C28.1101 21.46 28.5745 21.372 29.0051 21.5485C29.6132 21.7973 29.7379 21.6976 29.5613 21.1041C29.3778 20.4881 29.4957 20.4192 30.1675 20.7511C30.7918 21.0591 31.2308 20.8992 31.9151 20.1151C32.4178 19.5388 32.7139 19.3271 32.5725 19.6448C32.1714 20.5458 32.8962 20.821 33.6927 20.0701C34.0983 19.6874 34.5779 19.5715 34.7948 19.8037C35.4267 20.4803 37.8241 19.6194 37.8298 18.7141C37.8359 17.6977 38.3784 16.9595 38.4383 17.8859C38.4633 18.2667 38.4576 18.7644 38.4265 18.9912C38.2927 19.965 39.3443 18.8852 39.5775 17.8092C39.7458 17.0324 39.8474 16.9185 39.872 17.4787C39.9065 18.2594 40.6553 18.627 41.6159 18.3347C41.8244 18.2711 42.3362 18.1631 42.7532 18.0947C43.1702 18.0262 43.5114 17.9138 43.5114 17.8453C43.5114 17.6581 44.7681 17.4093 47.3024 17.0954C49.9516 16.7669 50.6404 16.5264 50.3955 16.0156C50.2981 15.8122 50.7136 15.6455 51.319 15.6455C51.9248 15.6455 52.4203 15.7897 52.4203 15.9662C52.4203 16.1427 52.7614 16.172 53.1785 16.0317C53.5955 15.8909 53.9367 15.5707 53.9367 15.3199C53.9367 15.0677 54.6911 14.9782 55.6252 15.12C56.8178 15.3008 57.4771 15.1654 57.8694 14.6595C58.2675 14.1466 58.4673 14.1075 58.5746 14.5221C58.6894 14.967 59.332 14.964 61.3534 14.5079C62.7996 14.1818 64.2812 13.9056 64.6462 13.8944C65.0113 13.8831 65.3097 13.6632 65.3097 13.406C65.3097 13.1489 65.7384 13.077 66.2624 13.2467C66.8086 13.4231 67.4554 13.2975 67.7787 12.9514C68.0889 12.6194 68.3425 12.5515 68.3425 12.7998C68.3425 13.0731 69.3554 13.0878 70.9014 12.837C72.309 12.6082 73.8868 12.4371 74.4081 12.4567C74.9293 12.4757 76.1235 12.2684 77.0618 11.9952C78.0001 11.7224 79.6207 11.4002 80.6632 11.2795C81.7058 11.1592 83.1558 10.9231 83.8856 10.7554C84.6153 10.5878 86.3213 10.3805 87.6766 10.2954C92.3748 9.99966 96.2086 9.43454 96.6465 8.97305C96.8906 8.7164 97.1776 8.6993 97.2906 8.93492C97.5775 9.53378 100.675 9.14464 101.609 8.39229C101.869 8.18208 102.082 8.20799 102.082 8.44949C102.082 8.69098 102.637 8.80978 103.314 8.71347C103.992 8.61716 105.099 8.49006 105.773 8.43091C107.069 8.31798 107.749 7.19703 106.929 6.52583C106.661 6.30682 106.586 6.12448 106.761 6.12008C106.937 6.11617 107.515 6.55272 108.045 7.09046C109.029 8.08871 111.939 8.48371 111.939 7.61892C111.939 7.352 112.492 7.36618 113.3 7.65411C114.977 8.25101 115.791 7.91321 115.498 6.74239C115.36 6.18901 115.398 6.07803 115.603 6.44077C116.093 7.30556 118.005 7.81739 118.005 7.08362C118.005 6.60845 118.124 6.60942 118.57 7.08655C118.949 7.49279 119.701 7.58225 120.855 7.35933C122.534 7.03424 122.572 6.98731 122.487 5.34768C122.433 4.31668 122.2 3.66845 121.885 3.66845C121.603 3.66845 121.488 3.91141 121.63 4.20815C121.772 4.50489 121.442 4.36947 120.894 3.9075C120.322 3.42402 119.9 3.2935 119.9 3.60001C119.9 3.95883 119.606 3.98914 119.002 3.69289C118.391 3.39273 117.79 3.46411 117.113 3.9163ZM133.319 4.56453C133.426 4.78891 133.274 4.97224 132.979 4.97224C132.685 4.97224 132.532 4.78891 132.639 4.56453C132.746 4.34063 132.899 4.15731 132.979 4.15731C133.059 4.15731 133.212 4.34063 133.319 4.56453ZM81.2319 9.56359C81.2319 9.81682 81.0613 10.0236 80.8528 10.0236C80.6443 10.0236 80.4737 9.68043 80.4737 9.26148C80.4737 8.84253 80.6443 8.63525 80.8528 8.80147C81.0613 8.96768 81.2319 9.31037 81.2319 9.56359ZM28.916 19.5275C28.916 19.6463 28.7454 19.879 28.5369 20.0452C28.3284 20.2114 28.1578 20.1141 28.1578 19.8296C28.1578 19.5451 28.3284 19.3119 28.5369 19.3119C28.7454 19.3119 28.916 19.4087 28.916 19.5275ZM18.396 22.7726C17.9271 23.0028 17.543 23.4183 17.543 23.696C17.543 24.4112 18.5784 24.3242 18.8096 23.5894C18.9578 23.1177 19.0856 23.1328 19.3692 23.6554C19.7828 24.4181 21.7131 24.0343 21.7131 23.1891C21.7131 22.8527 21.4925 22.8444 21.0501 23.1641C20.5861 23.4985 20.2157 23.4486 19.818 22.9979C19.4351 22.5643 18.97 22.4905 18.396 22.7726ZM16.0266 23.6828C16.0266 23.936 16.2238 24.2997 16.4645 24.4914C16.723 24.6977 16.7996 24.6268 16.6514 24.3178C16.5138 24.0304 16.6154 23.6838 16.8773 23.5474C17.1647 23.3983 17.0904 23.2849 16.6901 23.2614C16.325 23.2404 16.0266 23.4296 16.0266 23.6828ZM14.1311 24.6967C14.1311 24.9934 14.3017 25.1 14.5102 24.9338C14.7187 24.7676 14.8893 24.9749 14.8893 25.3938C14.8893 25.8128 15.1452 26.1559 15.458 26.1559C16.0744 26.1559 16.1768 25.7062 15.7366 24.9338C15.3378 24.2342 14.1311 24.0563 14.1311 24.6967ZM18.1117 25.1782C17.9828 25.4471 18.0582 25.6671 18.2789 25.6671C18.4995 25.6671 18.6803 25.4471 18.6803 25.1782C18.6803 24.9094 18.6053 24.6894 18.5132 24.6894C18.421 24.6894 18.2406 24.9094 18.1117 25.1782ZM12.2656 25.9521C12.2838 26.5216 12.3736 26.6375 12.4946 26.2479C12.6041 25.8949 12.5905 25.473 12.4646 25.3107C12.3387 25.1484 12.2493 25.4368 12.2656 25.9521ZM9.58193 26.6453C9.10919 27.051 9.10047 27.206 9.52923 27.5624C10.1953 28.1168 11.5514 27.6641 11.3667 26.9494C11.1741 26.2039 10.2745 26.0508 9.58193 26.6453ZM7.53137 27.5507C7.42143 27.7799 7.57649 28.3846 7.87598 28.895C8.17546 29.4049 8.42605 29.5652 8.43249 29.2514C8.43932 28.9371 8.54812 28.3323 8.67474 27.907C8.91812 27.0892 7.90403 26.7729 7.53137 27.5507ZM6.1215 28.1358C5.91186 29.0901 5.94787 30.5557 6.1814 30.5557C6.68219 30.5557 6.96879 28.9459 6.56164 28.4208C6.34631 28.1432 6.14842 28.0146 6.1215 28.1358ZM4.08497 29.4631C3.66341 29.8625 3.47386 32.0222 3.86055 32.0222C3.99551 32.0222 4.40493 31.572 4.77039 31.0216C5.65293 29.6928 5.1203 28.4824 4.08497 29.4631ZM2.37902 31.0157C2.37902 31.5691 2.54962 32.0222 2.75812 32.0222C2.96663 32.0222 3.13722 31.7055 3.13722 31.3178C3.13722 30.9301 2.96663 30.4775 2.75812 30.3112C2.54962 30.145 2.37902 30.4623 2.37902 31.0157ZM0.814095 31.3828C0.370169 32.0887 0.372823 32.1489 0.832292 31.7915C1.23603 31.4777 1.30996 31.5764 1.12837 32.1865C0.995305 32.6338 1.03359 33 1.21291 33C1.54197 33 1.99992 31.8384 1.99992 31.0044C1.99992 30.2868 1.37933 30.4848 0.814095 31.3828Z" fill="url(#paint0_linear_800_32313)"/>
<defs>
<linearGradient id="paint0_linear_800_32313" x1="0.46733" y1="16.6296" x2="274.942" y2="-19.6099" gradientUnits="userSpaceOnUse">
<stop stop-color="#FF0289"/>
<stop offset="0.578125" stop-color="#DF2EB0"/>
<stop offset="1" stop-color="#0065A4"/>
</linearGradient>
</defs>
</svg>
